<svg xmlns="http://www.w3.org/2000/svg" viewBox="0 0 1200 900">
  <rect width="1200" height="900" fill="#132b3d"/>
  <g transform="translate(145 105)" stroke="#b9cad5" stroke-width="12" fill="#1e425a">
    <rect width="910" height="690" rx="32"/>
    <path d="M300 0v690M610 0v690M0 210h910M0 475h910"/>
    <g fill="#88a1b4" stroke="none">
      <rect x="54" y="52" width="190" height="92" rx="12"/><rect x="355" y="52" width="202" height="92" rx="12"/><rect x="667" y="52" width="185" height="92" rx="12"/>
      <circle cx="100" cy="310" r="33"/><circle cx="180" cy="310" r="33"/><circle cx="407" cy="310" r="33"/><circle cx="487" cy="310" r="33"/><circle cx="720" cy="310" r="33"/><circle cx="800" cy="310" r="33"/>
      <rect x="54" y="535" width="190" height="92" rx="12"/><rect x="355" y="535" width="202" height="92" rx="12"/><rect x="667" y="535" width="185" height="92" rx="12"/>
    </g>
  </g>
</svg>
